<svg xmlns="http://www.w3.org/2000/svg"  viewBox="0 0 40 40" width="16px" height="16px"><path fill="#a6714e" d="M8.693 6.5L10.36 1.5 29.64 1.5 31.307 6.5z"/><path fill="#7a4f34" d="M29.279,2l1.333,4H9.387l1.333-4H29.279 M30,1H10L8,7h24L30,1L30,1z"/><path fill="#f5ce85" d="M9.548 38.5L6.911 9.5 33.089 9.5 30.452 38.5z"/><path fill="#967a44" d="M32.541,10l-2.545,28H10.004L7.459,10H32.541 M33.636,9H6.364l2.727,30h21.818L33.636,9L33.636,9z"/><path fill="#a6714e" d="M4.5,9.5V9c0-1.93,1.57-3.5,3.5-3.5h24c1.93,0,3.5,1.57,3.5,3.5v0.5H4.5z"/><path fill="#7a4f34" d="M32,5v1c1.654,0,3,1.346,3,3L5,9c0-1.654,1.346-3,3-3l24,0V5 M32,5L8,5C5.791,5,4,6.791,4,9v1l32,0 V9C36,6.791,34.209,5,32,5L32,5z"/><g><path fill="#bae0bd" d="M8.911 31.5L7.548 16.5 32.452 16.5 31.089 31.5z"/><path fill="#5e9c76" d="M31.905,17l-1.273,14H9.368L8.095,17H31.905 M33,16H7l1.455,16h23.091L33,16L33,16z"/></g><g><path fill="#ffeea3" d="M20 20.5A3.5 3.5 0 1 0 20 27.5A3.5 3.5 0 1 0 20 20.5Z"/><path fill="#ba9b48" d="M20,21c1.654,0,3,1.346,3,3s-1.346,3-3,3s-3-1.346-3-3S18.346,21,20,21 M20,20 c-2.209,0-4,1.791-4,4s1.791,4,4,4s4-1.791,4-4S22.209,20,20,20L20,20z"/></g></svg>